<svg xmlns="http://www.w3.org/2000/svg"  viewBox="0 0 100 100" width="400px" height="400px"><path fill="#565fa0" d="M69.986,82.034h-39c-6.6,0-12-5.4-12-12v-39c0-6.6,5.4-12,12-12h39c6.6,0,12,5.4,12,12v39 C81.986,76.634,76.586,82.034,69.986,82.034z"/><path fill="#1f212b" d="M69.986,83.034h-39c-7.18,0-13-5.82-13-13v-39c0-7.18,5.82-13,13-13h39c7.18,0,13,5.82,13,13v39 C82.986,77.214,77.165,83.034,69.986,83.034z M19.986,31.034v39c0,6.075,4.925,11,11,11h39c6.075,0,11-4.925,11-11v-39 c0-6.075-4.925-11-11-11h-39C24.91,20.034,19.986,24.959,19.986,31.034z"/><path fill="#1f212b" d="M67.148,78.034H33.823c-5.985,0-10.837-4.852-10.837-10.837V33.871 c0-5.985,4.852-10.837,10.837-10.837h33.663c0.276,0,0.5,0.224,0.5,0.5s-0.224,0.5-0.5,0.5H33.823 c-5.433,0-9.837,4.404-9.837,9.837v33.325c0,5.433,4.405,9.838,9.838,9.838h33.325c5.433,0,9.837-4.404,9.837-9.837V48.534 c0-0.276,0.224-0.5,0.5-0.5s0.5,0.224,0.5,0.5v18.662C77.986,73.182,73.133,78.034,67.148,78.034z M77.486,45.613 c-0.276,0-0.5-0.224-0.5-0.5v-4c0-0.276,0.224-0.5,0.5-0.5s0.5,0.224,0.5,0.5v4C77.986,45.39,77.762,45.613,77.486,45.613z M77.486,39.613c-0.276,0-0.5-0.224-0.5-0.5v-2c0-0.276,0.224-0.5,0.5-0.5s0.5,0.224,0.5,0.5v2 C77.986,39.39,77.762,39.613,77.486,39.613z"/><path fill="#fff" d="M69.5,66.5l-5.152-5.52c2.591-3.117,4.152-7.121,4.152-11.491c0-9.935-8.054-17.989-17.989-17.989 s-17.989,8.054-17.989,17.989c0,9.935,8.054,17.989,17.989,17.989c3.452,0,6.665-0.99,9.404-2.675L61.5,66.5H69.5z M50.511,60.478 c-6.069,0-10.989-4.92-10.989-10.989c0-6.069,4.92-10.989,10.989-10.989S61.5,43.42,61.5,49.489c0,2.347-0.742,4.517-1.995,6.302 L55.5,51.5h-8l7.485,8.02C53.617,60.13,52.106,60.478,50.511,60.478z"/><path fill="none" stroke="#1f212b" stroke-linecap="round" stroke-linejoin="round" stroke-miterlimit="10" d="M69.5,66.5 l-5.152-5.52c2.591-3.117,4.152-7.121,4.152-11.491c0-9.935-8.054-17.989-17.989-17.989s-17.989,8.054-17.989,17.989 c0,9.935,8.054,17.989,17.989,17.989c3.452,0,6.665-0.99,9.404-2.675L61.5,66.5H69.5z M50.511,60.478 c-6.069,0-10.989-4.92-10.989-10.989c0-6.069,4.92-10.989,10.989-10.989S61.5,43.42,61.5,49.489c0,2.347-0.742,4.517-1.995,6.302 L55.5,51.5h-8l7.485,8.02C53.617,60.13,52.106,60.478,50.511,60.478z"/></svg>